<svg viewBox="-91.692 -78.229 991.692 578.229" xmlns="http://www.w3.org/2000/svg" xmlns:xlink="http://www.w3.org/1999/xlink" xmlns:bx="https://boxy-svg.com">
  <defs>
    <pattern x="0" y="0" width="25" height="25" patternUnits="userSpaceOnUse" viewBox="0 0 100 100" id="pattern-0">
      <rect x="0" y="0" width="50" height="100" style="fill: black;"></rect>
    </pattern>
    <pattern id="pattern-0-0" patternTransform="matrix(1, 0, 0, 1, 406.936016, 203.657516)" xlink:href="#pattern-0"></pattern>
  </defs>
  <path style="stroke: rgb(0, 0, 0); fill: rgb(206, 206, 206); stroke-width: 3px;" d="M 700 -122.64 L 733.3333333333334 -115.23816666666669 C 766.6666666666666 -107.83633333333334 833.3333333333334 -93.03266666666667 850 -75.35549999999999 C 866.6666666666666 -57.678333333333335 833.3333333333334 -37.12766666666667 750 -24.0895 C 666.6666666666666 -11.051333333333334 533.3333333333334 -5.525666666666667 400 1.8018333333333334 C 266.6666666666667 9.129333333333333 133.33333333333334 18.258666666666667 51.38466666666667 34.925333333333334 C -30.563999999999997 51.592000000000006 -61.12799999999999 75.796 -61.12799999999999 99.88 C -61.12799999999999 123.964 -30.563999999999997 147.928 51.38466666666667 164.59466666666665 C 133.33333333333334 181.26133333333334 266.6666666666667 190.63066666666668 400 200.4805 C 533.3333333333334 210.33033333333333 666.6666666666666 220.66066666666666 750 237.3273333333333 C 833.3333333333334 253.994 866.6666666666666 276.997 866.6666666666666 299.039 C 866.6666666666666 321.08099999999996 833.3333333333334 342.162 750 358.8286666666666 C 666.6666666666666 375.4953333333333 533.3333333333334 387.74766666666665 400 397.47749999999996 C 266.6666666666667 407.20733333333334 133.33333333333334 414.41466666666673 51.38466666666667 431.08133333333336 C -30.563999999999997 447.74800000000005 -61.12799999999999 473.874 -42.059 496.09616666666665 C -22.989999999999995 518.3183333333333 45.71200000000001 536.6366666666667 80.063 545.7958333333333 L 114.414 554.955" class="myPath" bx:d="M 700 -122.64 U 900 -78.229 U 800 -16.577 U 400 0 U 0 27.388 U -91.692 100 U 0 171.892 U 400 200 U 800 230.991 U 900 300 U 800 363.243 U 400 400 U 0 421.622 U -91.692 500 U 114.414 554.955 1@e327d65d"></path>
</svg>